<?xml version="1.0" encoding="UTF-8"?>
<svg xmlns="http://www.w3.org/2000/svg" xmlns:xlink="http://www.w3.org/1999/xlink" width="144px" height="144px" viewBox="0 0 144 144" version="1.1">
<g id="surface59577">
<path style=" stroke:none;fill-rule:nonzero;fill:rgb(0%,58.823529%,53.333333%);fill-opacity:1;" d="M 107.101562 104.101562 C 84 104.101562 67.5 77.398438 66.898438 76.199219 L 65.101562 73.199219 L 66.898438 70.199219 C 67.5 68.699219 84 42 107.101562 42 C 124.199219 42 138 55.800781 138 72.898438 C 138 90 124.199219 104.101562 107.101562 104.101562 Z M 79.199219 72.898438 C 83.699219 78.898438 94.5 91.800781 106.800781 91.800781 C 117.300781 91.800781 125.699219 83.398438 125.699219 72.898438 C 125.699219 62.398438 117.300781 54 106.800781 54 C 94.5 54 83.699219 66.898438 79.199219 72.898438 Z M 79.199219 72.898438 "/>
<path style=" stroke:none;fill-rule:nonzero;fill:rgb(0%,58.823529%,53.333333%);fill-opacity:1;" d="M 36.898438 104.101562 C 19.800781 104.101562 6 90 6 72.898438 C 6 55.800781 19.800781 42 36.898438 42 C 60.601562 42 76.5 68.699219 77.101562 69.898438 L 78.898438 72.898438 L 77.101562 75.898438 C 76.5 77.101562 60 104.101562 36.898438 104.101562 Z M 36.898438 54 C 26.398438 54 18 62.398438 18 72.898438 C 18 83.398438 26.398438 91.800781 36.898438 91.800781 C 49.5 91.800781 60.300781 78.898438 64.800781 72.898438 C 60.601562 66.898438 49.800781 54 36.898438 54 Z M 36.898438 54 "/>
<path style=" stroke:none;fill-rule:nonzero;fill:rgb(0%,58.823529%,53.333333%);fill-opacity:1;" d="M 30 69 L 48 69 L 48 75 L 30 75 Z M 96 69 L 114 69 L 114 75 L 96 75 Z M 96 69 "/>
<path style=" stroke:none;fill-rule:nonzero;fill:rgb(0%,58.823529%,53.333333%);fill-opacity:1;" d="M 102 63 L 108 63 L 108 81 L 102 81 Z M 102 63 "/>
</g>
</svg>
