<?xml version="1.0" encoding="UTF-8"?>
<svg xmlns="http://www.w3.org/2000/svg" xmlns:xlink="http://www.w3.org/1999/xlink" width="144px" height="144px" viewBox="0 0 144 144" version="1.1">
<g id="surface719106">
<path style=" stroke:none;fill-rule:nonzero;fill:rgb(0.784314%,46.666667%,74.117647%);fill-opacity:1;" d="M 123 15 L 21 15 L 30 117 L 72 129 L 114 117 Z M 123 15 "/>
<path style=" stroke:none;fill-rule:nonzero;fill:rgb(1.176471%,60.784314%,89.803922%);fill-opacity:1;" d="M 72 24 L 72 119.699219 L 105.601562 110.101562 L 113.101562 24 Z M 72 24 "/>
<path style=" stroke:none;fill-rule:nonzero;fill:rgb(100%,100%,100%);fill-opacity:1;" d="M 99.300781 39 L 72 39 L 72 51 L 86.699219 51 L 85.800781 63 L 72 63 L 72 75 L 85.199219 75 L 84.300781 88.5 L 72 92.699219 L 72 105.300781 L 95.699219 97.5 L 97.800781 63 Z M 99.300781 39 "/>
<path style=" stroke:none;fill-rule:nonzero;fill:rgb(93.333333%,93.333333%,93.333333%);fill-opacity:1;" d="M 72 39 L 72 51 L 45.300781 51 L 44.398438 39 Z M 58.199219 63 L 58.800781 75 L 72 75 L 72 63 Z M 59.398438 81 L 47.398438 81 L 48.300781 97.5 L 72 105.300781 L 72 92.699219 L 59.699219 88.5 Z M 59.398438 81 "/>
</g>
</svg>
