<?xml version="1.0" encoding="UTF-8"?>
<svg xmlns="http://www.w3.org/2000/svg" xmlns:xlink="http://www.w3.org/1999/xlink" width="80px" height="80px" viewBox="0 0 80 80" version="1.1">
<g id="surface124060">
<path style=" stroke:none;fill-rule:nonzero;fill:rgb(100%,93.333333%,63.921569%);fill-opacity:1;" d="M 26.5 46.5 L 30.5 46.5 L 30.5 75.5 L 26.5 75.5 Z M 26.5 46.5 "/>
<path style=" stroke:none;fill-rule:nonzero;fill:rgb(96.078431%,76.078431%,46.27451%);fill-opacity:1;" d="M 30 47 L 30 75 L 27 75 L 27 47 L 30 47 M 31 46 L 26 46 L 26 76 L 31 76 Z M 31 46 "/>
<path style=" stroke:none;fill-rule:nonzero;fill:rgb(100%,93.333333%,63.921569%);fill-opacity:1;" d="M 50.5 46.5 L 54.5 46.5 L 54.5 75.5 L 50.5 75.5 Z M 50.5 46.5 "/>
<path style=" stroke:none;fill-rule:nonzero;fill:rgb(96.078431%,76.078431%,46.27451%);fill-opacity:1;" d="M 54 47 L 54 75 L 51 75 L 51 47 L 54 47 M 55 46 L 50 46 L 50 76 L 55 76 Z M 55 46 "/>
<path style=" stroke:none;fill-rule:nonzero;fill:rgb(100%,93.333333%,63.921569%);fill-opacity:1;" d="M 38.5 46.5 L 42.5 46.5 L 42.5 75.5 L 38.5 75.5 Z M 38.5 46.5 "/>
<path style=" stroke:none;fill-rule:nonzero;fill:rgb(96.078431%,76.078431%,46.27451%);fill-opacity:1;" d="M 42 47 L 42 75 L 39 75 L 39 47 L 42 47 M 43 46 L 38 46 L 38 76 L 43 76 Z M 43 46 "/>
<path style=" stroke:none;fill-rule:nonzero;fill:rgb(100%,93.333333%,63.921569%);fill-opacity:1;" d="M 19.5 20.5 L 19.5 11.207031 L 26.207031 4.5 L 54.816406 4.5 L 61.5 10.230469 L 61.5 20.5 Z M 40.5 7.527344 C 37.742188 7.527344 35.5 9.769531 35.5 12.527344 C 35.5 15.28125 37.742188 17.527344 40.5 17.527344 C 43.257812 17.527344 45.5 15.28125 45.5 12.527344 C 45.5 9.769531 43.257812 7.527344 40.5 7.527344 Z M 40.5 7.527344 "/>
<path style=" stroke:none;fill-rule:nonzero;fill:rgb(96.078431%,76.078431%,46.27451%);fill-opacity:1;" d="M 54.628906 5 L 61 10.460938 L 61 20 L 20 20 L 20 11.414062 L 26.414062 5 L 54.628906 5 M 40.5 18.027344 C 43.53125 18.027344 46 15.558594 46 12.527344 C 46 9.492188 43.53125 7.027344 40.5 7.027344 C 37.46875 7.027344 35 9.492188 35 12.527344 C 35 15.558594 37.46875 18.027344 40.5 18.027344 M 55 4 L 26 4 L 19 11 L 19 21 L 62 21 L 62 10 Z M 40.5 17.027344 C 38.015625 17.027344 36 15.011719 36 12.527344 C 36 10.039062 38.015625 8.027344 40.5 8.027344 C 42.984375 8.027344 45 10.039062 45 12.527344 C 45 15.011719 42.984375 17.027344 40.5 17.027344 Z M 40.5 17.027344 "/>
<path style=" stroke:none;fill-rule:nonzero;fill:rgb(29.411765%,39.215686%,46.666667%);fill-opacity:1;" d="M 19.5 19.5 L 61.5 19.5 L 61.5 52.5 L 19.5 52.5 Z M 19.5 19.5 "/>
<path style=" stroke:none;fill-rule:nonzero;fill:rgb(21.176471%,25.098039%,30.196078%);fill-opacity:1;" d="M 61 20 L 61 52 L 20 52 L 20 20 L 61 20 M 62 19 L 19 19 L 19 53 L 62 53 Z M 62 19 "/>
<path style=" stroke:none;fill-rule:nonzero;fill:rgb(21.176471%,25.098039%,30.196078%);fill-opacity:1;" d="M 20.285156 30 C 19.894531 30 19.511719 30.042969 19.144531 30.121094 L 19.144531 41.878906 C 19.511719 41.957031 19.894531 42 20.285156 42 C 23.441406 42 26 39.3125 26 36 C 26 32.6875 23.441406 30 20.285156 30 Z M 60.714844 30 C 61.105469 30 61.488281 30.042969 61.855469 30.121094 L 61.855469 41.878906 C 61.488281 41.957031 61.105469 42 60.714844 42 C 57.558594 42 55 39.3125 55 36 C 55 32.6875 57.558594 30 60.714844 30 Z M 60.714844 30 "/>
</g>
</svg>
