<?xml version="1.0" encoding="UTF-8"?>
<svg xmlns="http://www.w3.org/2000/svg" xmlns:xlink="http://www.w3.org/1999/xlink" width="144px" height="144px" viewBox="0 0 144 144" version="1.1">
<g id="surface57327">
<path style=" stroke:none;fill-rule:nonzero;fill:rgb(95.686275%,31.764706%,11.764706%);fill-opacity:1;" d="M 126.601562 66.300781 L 77.699219 17.398438 C 76.199219 15.898438 74.101562 15 72 15 C 69.898438 15 67.800781 15.898438 66.300781 17.398438 L 55.800781 27.898438 L 68.101562 40.199219 C 69.300781 39.601562 70.5 39.300781 72 39.300781 C 77.101562 39.300781 81 43.199219 81 48.300781 C 81 49.800781 80.699219 51 80.101562 52.199219 L 92.101562 64.199219 C 93.300781 63.601562 94.5 63.300781 96 63.300781 C 101.101562 63.300781 105 67.199219 105 72.300781 C 105 77.398438 101.101562 81.300781 96 81.300781 C 90.898438 81.300781 87 77.398438 87 72.300781 C 87 70.800781 87.300781 69.601562 87.898438 68.398438 L 75.898438 56.398438 C 75.601562 56.398438 75.300781 56.699219 75 56.699219 L 75 87.898438 C 78.601562 89.101562 81 92.398438 81 96.300781 C 81 101.398438 77.101562 105.300781 72 105.300781 C 66.898438 105.300781 63 101.398438 63 96.300781 C 63 92.398438 65.398438 89.101562 69 87.898438 L 69 56.398438 C 65.398438 55.199219 63 51.898438 63 48 C 63 46.5 63.300781 45.300781 63.898438 44.101562 L 51.601562 31.800781 L 17.398438 66.300781 C 15.898438 67.800781 15 69.898438 15 72 C 15 74.101562 15.898438 76.199219 17.398438 77.699219 L 66.300781 126.601562 C 67.800781 128.101562 69.898438 129 72 129 C 74.101562 129 76.199219 128.101562 77.699219 126.601562 L 126.601562 77.699219 C 128.101562 76.199219 129 74.101562 129 72 C 129 69.898438 128.101562 67.800781 126.601562 66.300781 Z M 126.601562 66.300781 "/>
</g>
</svg>
