<?xml version="1.0" encoding="UTF-8"?>
<svg xmlns="http://www.w3.org/2000/svg" xmlns:xlink="http://www.w3.org/1999/xlink" width="144px" height="144px" viewBox="0 0 144 144" version="1.1">
<g id="surface59470">
<path style=" stroke:none;fill-rule:nonzero;fill:rgb(21.568627%,27.843137%,30.980392%);fill-opacity:1;" d="M 49.375 8.960938 C 48.738281 8.980469 48.050781 9.21875 47.269531 9.832031 C 45.367188 9.097656 43.519531 8.839844 41.863281 10.335938 C 39.308594 10.007812 38.480469 10.6875 37.855469 11.484375 C 37.292969 11.476562 33.664062 10.910156 31.996094 13.398438 C 27.808594 12.898438 26.488281 15.859375 27.988281 18.613281 C 27.132812 19.9375 26.246094 21.246094 28.246094 23.773438 C 27.535156 25.183594 27.976562 26.699219 29.640625 28.546875 C 29.203125 30.523438 30.066406 31.917969 31.617188 33.007812 C 31.324219 35.707031 34.09375 37.277344 34.921875 37.835938 C 35.242188 39.414062 35.902344 40.898438 39.0625 41.722656 C 39.585938 44.074219 41.488281 44.472656 43.324219 44.96875 C 37.242188 48.503906 32.023438 53.15625 32.0625 64.574219 L 31.171875 66.160156 C 24.191406 70.402344 17.914062 84.042969 27.730469 95.128906 C 28.375 98.59375 29.449219 101.085938 30.40625 103.84375 C 31.839844 114.957031 41.183594 120.160156 43.648438 120.78125 C 47.261719 123.527344 51.109375 126.140625 56.3125 127.96875 C 61.222656 133.03125 66.535156 134.960938 71.882812 134.953125 C 71.960938 134.953125 72.042969 134.957031 72.121094 134.953125 C 77.464844 134.960938 82.78125 133.027344 87.6875 127.96875 C 92.890625 126.144531 96.742188 123.53125 100.355469 120.78125 C 102.820312 120.160156 112.167969 114.957031 113.59375 103.84375 C 114.550781 101.085938 115.628906 98.59375 116.269531 95.128906 C 126.085938 84.042969 119.8125 70.402344 112.832031 66.160156 L 111.941406 64.570312 C 111.976562 53.15625 106.753906 48.503906 100.675781 44.96875 C 102.511719 44.472656 104.414062 44.070312 104.9375 41.71875 C 108.101562 40.902344 108.761719 39.410156 109.078125 37.832031 C 109.90625 37.273438 112.675781 35.707031 112.390625 33 C 113.941406 31.917969 114.804688 30.523438 114.359375 28.546875 C 116.03125 26.703125 116.464844 25.175781 115.757812 23.773438 C 117.757812 21.246094 116.871094 19.941406 116.019531 18.613281 C 117.515625 15.859375 116.195312 12.898438 112.007812 13.398438 C 110.34375 10.910156 106.710938 11.476562 106.148438 11.484375 C 105.523438 10.6875 104.691406 10.007812 102.136719 10.335938 C 100.484375 8.839844 98.636719 9.097656 96.730469 9.832031 C 94.464844 8.042969 92.964844 9.472656 91.253906 10.015625 C 88.519531 9.121094 87.886719 10.351562 86.542969 10.847656 C 83.554688 10.214844 82.648438 11.589844 81.214844 13.039062 L 79.546875 13.007812 C 75.035156 15.664062 72.796875 21.078125 72.003906 23.855469 C 71.210938 21.070312 68.976562 15.664062 64.46875 13.007812 L 62.800781 13.039062 C 61.363281 11.589844 60.457031 10.214844 57.464844 10.847656 C 56.121094 10.351562 55.492188 9.121094 52.753906 10.015625 C 51.625 9.660156 50.589844 8.925781 49.375 8.960938 Z M 49.375 8.960938 "/>
<path style=" stroke:none;fill-rule:nonzero;fill:rgb(39.215686%,86.666667%,9.019608%);fill-opacity:1;" d="M 40.398438 20.65625 C 52.359375 26.820312 59.3125 31.808594 63.121094 36.058594 C 61.171875 43.878906 50.996094 44.234375 47.273438 44.015625 C 48.035156 43.660156 48.675781 43.234375 48.898438 42.578125 C 47.964844 41.914062 44.652344 42.511719 42.339844 41.210938 C 43.226562 41.023438 43.644531 40.851562 44.058594 40.195312 C 41.878906 39.496094 39.523438 38.894531 38.140625 37.742188 C 38.886719 37.753906 39.582031 37.90625 40.558594 37.234375 C 38.601562 36.179688 36.511719 35.347656 34.894531 33.734375 C 35.902344 33.707031 36.996094 33.722656 37.3125 33.347656 C 35.523438 32.238281 34.011719 31.007812 32.757812 29.65625 C 34.171875 29.832031 34.769531 29.683594 35.113281 29.433594 C 33.757812 28.050781 32.046875 26.882812 31.234375 25.171875 C 32.28125 25.53125 33.246094 25.675781 33.9375 25.136719 C 33.476562 24.101562 31.507812 23.488281 30.371094 21.066406 C 31.480469 21.175781 32.65625 21.308594 32.890625 21.066406 C 32.371094 18.976562 31.492188 17.800781 30.628906 16.578125 C 33 16.546875 36.585938 16.589844 36.421875 16.390625 L 34.960938 14.890625 C 37.273438 14.269531 39.640625 14.992188 41.359375 15.53125 C 42.128906 14.921875 41.34375 14.152344 40.402344 13.367188 C 42.367188 13.628906 44.144531 14.082031 45.75 14.703125 C 46.609375 13.929688 45.191406 13.15625 44.511719 12.382812 C 47.546875 12.957031 48.832031 13.765625 50.109375 14.574219 C 51.039062 13.6875 50.164062 12.929688 49.539062 12.152344 C 51.832031 13.003906 53.007812 14.097656 54.25 15.179688 C 54.671875 14.609375 55.320312 14.195312 54.535156 12.828125 C 56.164062 13.765625 57.386719 14.867188 58.292969 16.105469 C 59.296875 15.460938 58.894531 14.585938 58.894531 13.777344 C 60.585938 15.15625 61.660156 16.617188 62.96875 18.046875 C 63.234375 17.855469 63.464844 17.203125 63.667969 16.171875 C 67.699219 20.078125 73.394531 29.929688 65.132812 33.835938 C 58.101562 28.027344 49.703125 23.8125 40.398438 20.65625 Z M 103.867188 20.65625 C 91.910156 26.820312 84.953125 31.808594 81.148438 36.058594 C 83.097656 43.878906 93.277344 44.234375 96.996094 44.015625 C 96.234375 43.660156 95.597656 43.234375 95.371094 42.578125 C 96.304688 41.914062 99.613281 42.511719 101.929688 41.210938 C 101.039062 41.023438 100.625 40.851562 100.210938 40.195312 C 102.394531 39.496094 104.75 38.894531 106.132812 37.742188 C 105.382812 37.753906 104.6875 37.90625 103.714844 37.234375 C 105.667969 36.179688 107.757812 35.347656 109.378906 33.734375 C 108.367188 33.707031 107.277344 33.722656 106.960938 33.347656 C 108.753906 32.238281 110.257812 31.007812 111.511719 29.65625 C 110.09375 29.832031 109.5 29.683594 109.15625 29.433594 C 110.511719 28.050781 112.222656 26.882812 113.035156 25.171875 C 111.988281 25.53125 111.027344 25.675781 110.335938 25.136719 C 110.792969 24.101562 112.769531 23.488281 113.902344 21.066406 C 112.792969 21.175781 111.621094 21.308594 111.386719 21.066406 C 111.902344 18.976562 112.78125 17.800781 113.648438 16.578125 C 111.28125 16.542969 107.695312 16.589844 107.851562 16.390625 L 109.316406 14.890625 C 107.003906 14.269531 104.636719 14.992188 102.917969 15.53125 C 102.144531 14.921875 102.933594 14.152344 103.871094 13.367188 C 101.910156 13.628906 100.128906 14.078125 98.527344 14.703125 C 97.667969 13.929688 99.085938 13.15625 99.769531 12.382812 C 96.730469 12.953125 95.449219 13.765625 94.167969 14.574219 C 93.238281 13.6875 94.113281 12.929688 94.738281 12.152344 C 92.449219 13.003906 91.269531 14.097656 90.027344 15.175781 C 89.605469 14.609375 88.960938 14.195312 89.742188 12.828125 C 88.117188 13.761719 86.890625 14.867188 85.984375 16.105469 C 84.980469 15.460938 85.386719 14.585938 85.378906 13.777344 C 83.691406 15.15625 82.621094 16.617188 81.304688 18.046875 C 81.042969 17.855469 80.8125 17.203125 80.609375 16.171875 C 76.574219 20.078125 70.882812 29.929688 79.144531 33.835938 C 86.167969 28.027344 94.5625 23.8125 103.867188 20.65625 Z M 103.867188 20.65625 "/>
<path style=" stroke:none;fill-rule:nonzero;fill:rgb(100%,25.098039%,50.588235%);fill-opacity:1;" d="M 86.617188 100.277344 C 86.660156 107.578125 80.28125 113.519531 72.367188 113.5625 C 64.453125 113.597656 58.003906 107.71875 57.964844 100.417969 C 57.964844 100.371094 57.964844 100.324219 57.964844 100.277344 C 57.925781 92.980469 64.300781 87.035156 72.214844 86.992188 C 80.128906 86.957031 86.578125 92.839844 86.617188 100.140625 C 86.617188 100.183594 86.617188 100.234375 86.617188 100.277344 Z M 64 62.539062 C 69.9375 66.425781 71.003906 75.238281 66.390625 82.226562 C 61.773438 89.214844 53.21875 91.722656 47.28125 87.832031 C 41.34375 83.941406 40.273438 75.125 44.890625 68.140625 C 49.507812 61.15625 58.066406 58.648438 64 62.539062 Z M 80.027344 61.828125 C 74.089844 65.714844 73.015625 74.535156 77.632812 81.519531 C 82.25 88.507812 90.808594 91.015625 96.742188 87.125 C 102.679688 83.234375 103.753906 74.425781 99.136719 67.433594 C 94.519531 60.449219 85.960938 57.941406 80.027344 61.828125 Z M 34.328125 68.898438 C 40.738281 67.179688 36.492188 95.410156 31.277344 93.097656 C 25.542969 88.480469 23.695312 74.964844 34.328125 68.898438 Z M 108.40625 68.542969 C 101.992188 66.828125 106.238281 95.0625 111.453125 92.742188 C 117.191406 88.125 119.039062 74.613281 108.40625 68.542969 Z M 86.625 47.515625 C 97.6875 45.644531 106.894531 52.21875 106.519531 64.210938 C 106.15625 68.8125 82.546875 48.195312 86.625 47.515625 Z M 56.0625 47.160156 C 45 45.296875 35.796875 51.871094 36.167969 63.859375 C 36.53125 68.464844 60.136719 47.847656 56.0625 47.160156 Z M 71.949219 44.367188 C 65.347656 44.191406 59.011719 49.269531 58.996094 52.207031 C 58.976562 55.777344 64.21875 59.441406 71.992188 59.53125 C 79.9375 59.589844 85.003906 56.601562 85.035156 52.917969 C 85.0625 48.738281 77.8125 44.300781 71.949219 44.367188 Z M 72.355469 117.664062 C 78.109375 117.410156 85.832031 119.519531 85.851562 122.308594 C 85.945312 125.023438 78.84375 131.152344 71.972656 131.03125 C 64.855469 131.339844 57.875 125.203125 57.96875 123.078125 C 57.859375 119.953125 66.636719 117.523438 72.355469 117.664062 Z M 51.09375 101.109375 C 55.191406 106.046875 57.058594 114.726562 53.640625 117.277344 C 50.402344 119.234375 42.546875 118.429688 36.960938 110.410156 C 33.195312 103.675781 33.679688 96.828125 36.324219 94.8125 C 40.277344 92.402344 46.390625 95.652344 51.09375 101.109375 Z M 92.796875 99.550781 C 88.359375 104.742188 85.894531 114.214844 89.128906 117.265625 C 92.21875 119.636719 100.523438 119.308594 106.652344 110.796875 C 111.105469 105.078125 109.617188 95.535156 107.074219 92.992188 C 103.292969 90.078125 97.867188 93.8125 92.796875 99.550781 Z M 92.796875 99.550781 "/>
</g>
</svg>
